# xmcd
#
# Track frame offsets:
#	150
#	17524
#	28615
#	46059
#	61427
#	74830
#	90462
#	103322
#	115680
#	135771
#	148770
#	168234
#	177708
#
# Disc length: 2573 seconds
#
# Revision: 1
# Processed by: cddbd v1.5PL3 Copyright (c) Steve Scherf et al.
# Submitted via: audiograbber 1.81.02
#
DISCID=b10a0b0d
DTITLE=Larry Cordle and Lonesome Standard Times - Murder on Music Row
DYEAR=1900
DGENRE=Bluegrass
TTITLE0=Black Diamond Strings
TTITLE1=Black Jack
TTITLE2=Bucks Run
TTITLE3=Deep Mine Blues
TTITLE4=Hard Times
TTITLE5=I Know How if Feels
TTITLE6=I Wonder Where You Are Tonight
TTITLE7=I'm Not The First
TTITLE8=Jesus and Bartenders
TTITLE9=Long Enough To Make Me Blue
TTITLE10=Murder On Music Row
TTITLE11=Old Kentucky Miners
TTITLE12=When it's All Said and Done
EXTD=
EXTT0=
EXTT1=
EXTT2=
EXTT3=
EXTT4=
EXTT5=
EXTT6=
EXTT7=
EXTT8=
EXTT9=
EXTT10=
EXTT11=
EXTT12=
PLAYORDER=
